<svg fill="currentColor" viewBox="0 0 300 300"> <path d="M167.8,145L167.8,145V83.3c0-0.6-0.5-1.1-1.1-1.1h-8.1c-0.6,0-1.1,0.5-1.1,1.1V145H144v-6.7c0-0.2-0.2-0.4-0.4-0.4h-9.5 c-0.2,0-0.4,0.2-0.4,0.4v6.7h-1.6c-1.2,0-2.2,1-2.2,2.2v68.3c0,1.2,1,2.2,2.2,2.2h35.5c1.2,0,2.2-1,2.2-2.2v-68.3 C170,146,169,145,167.8,145z" /> <path d="M268.5,245.5h-237c-8,0-14.5-6.5-14.5-14.5V69c0-8,6.5-14.5,14.5-14.5h236.9c8,0,14.5,6.5,14.5,14.5v161.9 C283,239,276.5,245.5,268.5,245.5z M31.5,64.5c-2.5,0-4.5,2-4.5,4.5v161.9c0,2.5,2,4.5,4.5,4.5h236.9c2.5,0,4.5-2,4.5-4.5V69 c0-2.5-2-4.5-4.5-4.5H31.5z" /> </svg>
