<svg fill="currentColor" viewBox="0 0 300 300"> <path d="M32.26,217.69H267.74A32.29,32.29,0,0,0,300,185.43V114.57a32.29,32.29,0,0,0-32.26-32.26H32.26A32.29,32.29,0,0,0,0,114.57v70.86A32.29,32.29,0,0,0,32.26,217.69ZM10,114.57A22.28,22.28,0,0,1,32.26,92.31H267.74A22.28,22.28,0,0,1,290,114.57v70.86a22.28,22.28,0,0,1-22.26,22.26H32.26A22.28,22.28,0,0,1,10,185.43Z" /> <polygon points="140.74 188.83 139.7 198.87 167.09 178.98 132.91 183.37 140.74 188.83" /> <rect x="116.18" y="127.45" width="67.64" height="45.1" /> <ellipse cx="200.17" cy="172.9" rx="4.91" ry="7.63" /> <circle cx="231.22" cy="172.9" r="13.63" /> <ellipse cx="99.83" cy="172.9" rx="4.91" ry="7.63" /> <circle cx="68.78" cy="172.9" r="13.63" /> <ellipse cx="99.83" cy="127.1" rx="4.91" ry="7.63" /> <circle cx="68.78" cy="127.1" r="13.63" /> <ellipse cx="200.17" cy="127.1" rx="4.91" ry="7.63" /> <circle cx="231.22" cy="127.1" r="13.63" /> </svg>
