<svg fill="currentColor" version="1.1" id="Layer_1" focusable="false" xmlns="http://www.w3.org/2000/svg" xmlns:xlink="http://www.w3.org/1999/xlink" x="0px" y="0px" height="190.9px" viewBox="0 0 266 190.9" style="enable-background:new 0 0 266 190.9;" xml:space="preserve"> <path d="M9.1,6.8c-5.7,4.9-9,12-9.1,19.5V163c0.6,16,14.1,28.5,30.1,27.9c0,0,0.1,0,0.1,0h204.4c8.4,0.7,16.7-2.2,22.9-7.8 c5.3-4.9,8.4-11.8,8.4-19.1V26.5c-1.3-15.7-15.1-27.5-30.8-26.3H31.3C23.3-0.8,15.2,1.6,9.1,6.8z M29.7,15.8h206 c7.2-0.7,13.6,4.3,14.6,11.4v136.7c0,3-1.3,5.8-3.5,7.8c-3.2,2.8-7.4,4.1-11.7,3.7H30.8c-7.5,0.8-14.3-4.7-15.2-12.2V26.3 c0-3,1.3-5.9,3.7-7.8C22.2,16.1,26,15.1,29.7,15.8z" /> <circle cx="84.2" cy="95" r="22.5" /> <circle cx="85.1" cy="95.5" r="23.5" /> <g> <g> <line x1="125.4" y1="70.1" x2="125.4" y2="90.1" /> <ellipse cx="142.1" cy="80.1" rx="7.5" ry="9.4" /> <line x1="158.7" y1="70.1" x2="158.7" y2="90.1" /> <ellipse cx="175.4" cy="80.1" rx="7.5" ry="9.4" /> <line x1="192" y1="70.1" x2="192" y2="90.1" /> <ellipse cx="208.7" cy="80.1" rx="7.5" ry="9.4" /> </g> <g> <line x1="216.2" y1="100.8" x2="216.2" y2="120.8" /> <ellipse cx="199.5" cy="110.8" rx="7.5" ry="9.4" /> <line x1="182.9" y1="100.8" x2="182.9" y2="120.8" /> <ellipse cx="166.2" cy="110.8" rx="7.5" ry="9.4" /> <line x1="149.6" y1="100.8" x2="149.6" y2="120.8" /> <ellipse cx="132.9" cy="110.8" rx="7.5" ry="9.4" /> </g> </g> </svg>
