<svg fill="currentColor" viewBox="0 0 300 300" > <path d="M268.5,247.3h-237c-8,0-14.5-6.5-14.5-14.5V71c0-8,6.5-14.5,14.5-14.5h236.9c8,0,14.5,6.5,14.5,14.5v161.9 c0.1,3.8-1.4,7.4-4.1,10.2C276.1,245.8,272.5,247.3,268.5,247.3z M31.5,66.5c-2.5,0-4.5,2-4.5,4.5v161.9c0,2.5,2,4.5,4.5,4.5h237 c1.2,0,2.3-0.5,3.2-1.3c0.8-0.8,1.2-1.9,1.2-3.1l0-162c0-2.5-2-4.5-4.5-4.5H31.5z"/> <path d="M98.4,210.8c-13.8,0-25-11.2-25-25s11.2-25,25-25s25,11.2,25,25S112.2,210.8,98.4,210.8z M98.4,165.8c-11,0-20,9-20,20 s9,20,20,20s20-9,20-20S109.5,165.8,98.4,165.8z"/> <path d="M210,202.6c-0.6,0-1.3-0.2-1.8-0.7c-1-1-1-2.6,0-3.5l9.9-9.9h-74c-1.4,0-2.5-1.1-2.5-2.5s1.1-2.5,2.5-2.5h74l-9.9-9.9 c-1-1-1-2.6,0-3.5c1-1,2.6-1,3.5,0l14.1,14.1c0.2,0.2,0.3,0.4,0.5,0.6l0,0l0,0l0,0l0,0l0,0l0,0l0,0l0,0c0,0.1,0.1,0.1,0.1,0.2 c0.1,0.3,0.2,0.6,0.2,0.9l0,0l0,0c0,0,0,0,0,0.1l0,0l0,0c0,0.3-0.1,0.6-0.2,0.9c-0.1,0.3-0.3,0.6-0.5,0.8l-14.1,14.1 C211.2,202.2,210.6,202.6,210,202.6z"/> <path d="M98.4,142.9c-13.8,0-25-11.2-25-25s11.2-25,25-25s25,11.2,25,25S112.2,142.9,98.4,142.9z M98.4,97.9c-11,0-20,9-20,20 s9,20,20,20s20-9,20-20S109.5,97.9,98.4,97.9z"/> <path d="M158.2,134.5c-0.6,0-1.3-0.2-1.8-0.7l-14.1-14.1l0,0l0,0l0,0l0,0l0,0l0,0l0,0c-0.2-0.2-0.4-0.5-0.5-0.8 c-0.1-0.3-0.2-0.6-0.2-0.9l0,0c0,0,0,0,0-0.1l0,0c0-0.3,0.1-0.6,0.2-0.9c0.1-0.2,0.2-0.4,0.4-0.6l0,0l0,0l0,0l0,0l0,0l0,0l0,0l0,0 l0,0l0,0l0,0l0,0l0,0l0,0l0,0l0,0l0,0l0,0l0,0l0,0l0,0l0,0l0,0l0,0l0,0l14.1-14.1c1-1,2.6-1,3.5,0c1,1,1,2.6,0,3.5l-9.9,9.9h74 c1.4,0,2.5,1.1,2.5,2.5s-1.1,2.5-2.5,2.5h-74l9.9,9.9c1,1,1,2.6,0,3.5C159.5,134.2,158.9,134.5,158.2,134.5z"/> </svg>
