<svg fill="currentColor" viewBox="0 0 300 300"> <path d="M290.94,51.44H9.06a9,9,0,0,0-9,9V239.56a9,9,0,0,0,9,9H290.94a9,9,0,0,0,9-9V60.44A9,9,0,0,0,290.94,51.44Zm-1,187.12H10.06V61.44H289.94Z" /> <rect x="25.55" y="83.56" width="90" height="20" /> <rect x="32.17" y="108.25" width="12.8" height="12.8" /> <rect x="53.49" y="108.25" width="12.8" height="12.8" /> <rect x="74.82" y="108.25" width="12.8" height="12.8" /> <rect x="96.14" y="108.25" width="12.8" height="12.8" /> <rect x="32.17" y="127.17" width="12.8" height="12.8" /> <rect x="53.49" y="127.17" width="12.8" height="12.8" /> <rect x="74.82" y="127.17" width="12.8" height="12.8" /> <rect x="96.14" y="127.17" width="12.8" height="12.8" /> <rect x="25.55" y="160.03" width="90" height="20" /> <rect x="32.17" y="184.72" width="12.8" height="12.8" /> <rect x="53.49" y="184.72" width="12.8" height="12.8" /> <rect x="74.82" y="184.72" width="12.8" height="12.8" /> <rect x="96.14" y="184.72" width="12.8" height="12.8" /> <rect x="32.17" y="203.64" width="12.8" height="12.8" /> <rect x="53.49" y="203.64" width="12.8" height="12.8" /> <rect x="74.82" y="203.64" width="12.8" height="12.8" /> <rect x="96.14" y="203.64" width="12.8" height="12.8" /> <rect x="136.15" y="159.88" width="90" height="20" /> <rect x="140" y="190.04" width="20" height="20" /> <rect x="236.63" y="185.02" width="12.8" height="12.8" /> <rect x="257.96" y="185.02" width="12.8" height="12.8" /> <rect x="236.63" y="203.94" width="12.8" height="12.8" /> <rect x="257.96" y="203.94" width="12.8" height="12.8" /> <circle cx="253.03" cy="169.88" r="10" /> <rect x="171.95" y="190.04" width="20" height="20" /> <rect x="203.89" y="190.04" width="20" height="20" /> <polygon points="181.3 129.74 243.03 84.92 166 94.81 183.64 107.11 181.3 129.74" /> </svg>
