<svg fill="currentColor" viewBox="0 0 300 300"> <path d="M290.08,54.57H9.9a10,10,0,0,0-7,2.87A8.77,8.77,0,0,0,.24,63.68V236.32c0,5,4.34,9.11,9.68,9.11H290.1c5.33,0,9.66-4.09,9.66-9.11V63.68C299.76,58.65,295.42,54.57,290.08,54.57Zm-.32,180.86H10.24V64.57H289.76Z" /> <polygon points="215.99 143.51 257.58 113.31 205.69 119.97 217.57 128.26 215.99 143.51" /> <path d="M183.86,135.75a8.19,8.19,0,0,0,8.21-8.17v0a8.19,8.19,0,1,0-8.21,8.19Z" /> <rect x="156.31" y="109.36" width="15.44" height="9.82" rx="0.94" /> <rect x="156.31" y="138" width="15.44" height="9.82" rx="0.94" /> <rect x="60.66" y="107.36" width="56.13" height="42.1" rx="1.75" /> <rect x="60.66" y="174.72" width="56.13" height="42.1" rx="1.75" /> <rect x="182.74" y="174.72" width="56.13" height="42.1" rx="1.75" /> <rect x="34.23" y="109.47" width="15.44" height="9.82" rx="0.94" /> <rect x="34.23" y="123.5" width="15.44" height="9.82" rx="0.94" /> <rect x="34.23" y="137.53" width="15.44" height="9.82" rx="0.94" /> <rect x="34.23" y="176.82" width="15.44" height="9.82" rx="0.94" /> <rect x="34.23" y="190.85" width="15.44" height="9.82" rx="0.94" /> <rect x="34.23" y="204.88" width="15.44" height="9.82" rx="0.94" /> <rect x="156.55" y="176.82" width="15.44" height="9.82" rx="0.94" /> <rect x="156.55" y="190.85" width="15.44" height="9.82" rx="0.94" /> <rect x="156.55" y="204.88" width="15.44" height="9.82" rx="0.94" /> <rect x="127.78" y="109.47" width="15.44" height="9.82" rx="0.94" /> <rect x="127.78" y="123.5" width="15.44" height="9.82" rx="0.94" /> <rect x="127.78" y="137.53" width="15.44" height="9.82" rx="0.94" /> <rect x="127.78" y="176.82" width="15.44" height="9.82" rx="0.94" /> <rect x="127.78" y="190.85" width="15.44" height="9.82" rx="0.94" /> <rect x="127.78" y="204.88" width="15.44" height="9.82" rx="0.94" /> <rect x="249.86" y="176.82" width="15.44" height="9.82" rx="0.94" /> <rect x="249.86" y="190.85" width="15.44" height="9.82" rx="0.94" /> <rect x="249.86" y="204.88" width="15.44" height="9.82" rx="0.94" /> </svg>
