<svg fill="currentColor" viewBox="0 0 300 300"> <path d="M286,89.37H14a14,14,0,0,0-14,14v111.8a14,14,0,0,0,14,14H286a14,14,0,0,0,14-14V103.37A14,14,0,0,0,286,89.37Zm4,125.8a4,4,0,0,1-4,4H14a4,4,0,0,1-4-4V103.37a4,4,0,0,1,4-4H286a4,4,0,0,1,4,4Z" /> <path d="M250.44,135.69a13,13,0,1,0,13,13v0A13,13,0,0,0,250.44,135.69Z" /> <rect x="133.52" y="116.66" width="88.9" height="66.67" rx="2.78" /> <rect x="91.67" y="120" width="24.45" height="15.56" rx="1.48" /> <rect x="91.67" y="142.22" width="24.45" height="15.56" rx="1.48" /> <polygon points="34.85 147.67 33.27 162.92 74.86 132.72 22.97 139.38 34.85 147.67" /> <rect x="91.67" y="164.45" width="24.45" height="15.56" rx="1.48" /> </svg>
